<mxfile host="app.diagrams.net" agent="Mozilla/5.0 (Windows NT 10.0; Win64; x64) AppleWebKit/537.36 (KHTML, like Gecko) Chrome/133.0.0.0 Safari/537.36 Edg/133.0.0.0" version="26.0.16">
  <diagram name="Página-1" id="xkfj7SfOD_u6FFduKL2Y">
    <mxGraphModel dx="1545" dy="2047" grid="1" gridSize="10" guides="1" tooltips="1" connect="1" arrows="1" fold="1" page="1" pageScale="1" pageWidth="827" pageHeight="1169" math="0" shadow="0">
      <root>
        <mxCell id="0" />
        <mxCell id="1" parent="0" />
        <mxCell id="kTTq5hPvJIcZaEUFOn4r-1" value="pessoa" style="rounded=0;whiteSpace=wrap;html=1;" parent="1" vertex="1">
          <mxGeometry x="220" y="210" width="80" height="60" as="geometry" />
        </mxCell>
        <mxCell id="kTTq5hPvJIcZaEUFOn4r-4" value="professor" style="rounded=0;whiteSpace=wrap;html=1;" parent="1" vertex="1">
          <mxGeometry x="560" y="70" width="80" height="60" as="geometry" />
        </mxCell>
        <mxCell id="kTTq5hPvJIcZaEUFOn4r-47" value="" style="endArrow=none;html=1;rounded=0;exitX=1;exitY=0.5;exitDx=0;exitDy=0;entryX=0;entryY=0.25;entryDx=0;entryDy=0;" parent="1" target="kTTq5hPvJIcZaEUFOn4r-1" edge="1">
          <mxGeometry width="50" height="50" relative="1" as="geometry">
            <mxPoint x="89" y="205" as="sourcePoint" />
            <mxPoint x="440" y="200" as="targetPoint" />
          </mxGeometry>
        </mxCell>
        <mxCell id="kTTq5hPvJIcZaEUFOn4r-48" value="" style="endArrow=none;html=1;rounded=0;exitX=1;exitY=0.75;exitDx=0;exitDy=0;entryX=0;entryY=0;entryDx=0;entryDy=0;" parent="1" target="kTTq5hPvJIcZaEUFOn4r-1" edge="1">
          <mxGeometry width="50" height="50" relative="1" as="geometry">
            <mxPoint x="89" y="134.5" as="sourcePoint" />
            <mxPoint x="440" y="200" as="targetPoint" />
          </mxGeometry>
        </mxCell>
        <mxCell id="kTTq5hPvJIcZaEUFOn4r-49" value="" style="endArrow=none;html=1;rounded=0;exitX=1;exitY=0.5;exitDx=0;exitDy=0;entryX=0;entryY=0.5;entryDx=0;entryDy=0;" parent="1" target="kTTq5hPvJIcZaEUFOn4r-1" edge="1">
          <mxGeometry width="50" height="50" relative="1" as="geometry">
            <mxPoint x="89" y="285" as="sourcePoint" />
            <mxPoint x="440" y="200" as="targetPoint" />
          </mxGeometry>
        </mxCell>
        <mxCell id="kTTq5hPvJIcZaEUFOn4r-50" value="" style="endArrow=none;html=1;rounded=0;exitX=1;exitY=0.25;exitDx=0;exitDy=0;entryX=0;entryY=0.75;entryDx=0;entryDy=0;" parent="1" target="kTTq5hPvJIcZaEUFOn4r-1" edge="1">
          <mxGeometry width="50" height="50" relative="1" as="geometry">
            <mxPoint x="89" y="347.5" as="sourcePoint" />
            <mxPoint x="440" y="200" as="targetPoint" />
          </mxGeometry>
        </mxCell>
        <mxCell id="kTTq5hPvJIcZaEUFOn4r-51" value="" style="endArrow=none;html=1;rounded=0;entryX=0;entryY=0.5;entryDx=0;entryDy=0;" parent="1" source="5sSVUtm3FbJFoOjmwIGV-1" target="kTTq5hPvJIcZaEUFOn4r-4" edge="1">
          <mxGeometry width="50" height="50" relative="1" as="geometry">
            <mxPoint x="430" y="220" as="sourcePoint" />
            <mxPoint x="440" y="200" as="targetPoint" />
          </mxGeometry>
        </mxCell>
        <mxCell id="kTTq5hPvJIcZaEUFOn4r-52" value="" style="endArrow=none;html=1;rounded=0;exitX=0.6;exitY=1.04;exitDx=0;exitDy=0;exitPerimeter=0;entryX=0.25;entryY=0;entryDx=0;entryDy=0;" parent="1" target="kTTq5hPvJIcZaEUFOn4r-4" edge="1">
          <mxGeometry width="50" height="50" relative="1" as="geometry">
            <mxPoint x="442" y="-58" as="sourcePoint" />
            <mxPoint x="440" y="200" as="targetPoint" />
          </mxGeometry>
        </mxCell>
        <mxCell id="kTTq5hPvJIcZaEUFOn4r-53" value="" style="endArrow=none;html=1;rounded=0;exitX=0.5;exitY=1;exitDx=0;exitDy=0;entryX=0.5;entryY=0;entryDx=0;entryDy=0;" parent="1" target="kTTq5hPvJIcZaEUFOn4r-4" edge="1">
          <mxGeometry width="50" height="50" relative="1" as="geometry">
            <mxPoint x="585" y="-60" as="sourcePoint" />
            <mxPoint x="440" y="200" as="targetPoint" />
          </mxGeometry>
        </mxCell>
        <mxCell id="kTTq5hPvJIcZaEUFOn4r-54" value="" style="endArrow=none;html=1;rounded=0;exitX=0.5;exitY=1;exitDx=0;exitDy=0;entryX=0.75;entryY=0;entryDx=0;entryDy=0;" parent="1" target="kTTq5hPvJIcZaEUFOn4r-4" edge="1">
          <mxGeometry width="50" height="50" relative="1" as="geometry">
            <mxPoint x="680" y="-75" as="sourcePoint" />
            <mxPoint x="440" y="200" as="targetPoint" />
          </mxGeometry>
        </mxCell>
        <mxCell id="kTTq5hPvJIcZaEUFOn4r-55" value="aluno" style="rounded=0;whiteSpace=wrap;html=1;" parent="1" vertex="1">
          <mxGeometry x="560" y="200" width="80" height="60" as="geometry" />
        </mxCell>
        <mxCell id="kTTq5hPvJIcZaEUFOn4r-56" value="" style="endArrow=none;html=1;rounded=0;entryX=0.025;entryY=0.617;entryDx=0;entryDy=0;entryPerimeter=0;" parent="1" source="5sSVUtm3FbJFoOjmwIGV-1" target="kTTq5hPvJIcZaEUFOn4r-55" edge="1">
          <mxGeometry width="50" height="50" relative="1" as="geometry">
            <mxPoint x="460" y="240" as="sourcePoint" />
            <mxPoint x="440" y="200" as="targetPoint" />
          </mxGeometry>
        </mxCell>
        <mxCell id="kTTq5hPvJIcZaEUFOn4r-57" value="encarregado&amp;nbsp; de educação" style="rounded=0;whiteSpace=wrap;html=1;" parent="1" vertex="1">
          <mxGeometry x="560" y="370" width="80" height="60" as="geometry" />
        </mxCell>
        <mxCell id="kTTq5hPvJIcZaEUFOn4r-58" value="" style="endArrow=none;html=1;rounded=0;entryX=0;entryY=0.5;entryDx=0;entryDy=0;" parent="1" source="5sSVUtm3FbJFoOjmwIGV-1" target="kTTq5hPvJIcZaEUFOn4r-57" edge="1">
          <mxGeometry width="50" height="50" relative="1" as="geometry">
            <mxPoint x="430" y="260" as="sourcePoint" />
            <mxPoint x="430" y="200" as="targetPoint" />
          </mxGeometry>
        </mxCell>
        <mxCell id="kTTq5hPvJIcZaEUFOn4r-62" value="lista de pessoas (entregar/levantar)" style="rounded=0;whiteSpace=wrap;html=1;" parent="1" vertex="1">
          <mxGeometry x="205" y="30" width="110" height="60" as="geometry" />
        </mxCell>
        <mxCell id="kTTq5hPvJIcZaEUFOn4r-63" value="1" style="endArrow=none;html=1;rounded=0;exitX=0.5;exitY=0;exitDx=0;exitDy=0;entryX=0.5;entryY=1;entryDx=0;entryDy=0;" parent="1" source="1fyyE1d8kjyRgyEDbASr-11" target="kTTq5hPvJIcZaEUFOn4r-62" edge="1">
          <mxGeometry x="0.5" y="-10" width="50" height="50" relative="1" as="geometry">
            <mxPoint x="380" y="350" as="sourcePoint" />
            <mxPoint x="430" y="300" as="targetPoint" />
            <mxPoint as="offset" />
          </mxGeometry>
        </mxCell>
        <mxCell id="kTTq5hPvJIcZaEUFOn4r-64" value="N" style="endArrow=none;html=1;rounded=0;exitX=1;exitY=0.5;exitDx=0;exitDy=0;entryX=0;entryY=0.5;entryDx=0;entryDy=0;" parent="1" source="1fyyE1d8kjyRgyEDbASr-13" target="kTTq5hPvJIcZaEUFOn4r-55" edge="1">
          <mxGeometry x="0.7258" y="9" width="50" height="50" relative="1" as="geometry">
            <mxPoint x="380" y="350" as="sourcePoint" />
            <mxPoint x="430" y="300" as="targetPoint" />
            <mxPoint as="offset" />
          </mxGeometry>
        </mxCell>
        <mxCell id="kTTq5hPvJIcZaEUFOn4r-66" value="" style="endArrow=none;html=1;rounded=0;exitX=0.5;exitY=0;exitDx=0;exitDy=0;" parent="1" source="kTTq5hPvJIcZaEUFOn4r-62" edge="1" target="kTTq5hPvJIcZaEUFOn4r-124">
          <mxGeometry width="50" height="50" relative="1" as="geometry">
            <mxPoint x="380" y="250" as="sourcePoint" />
            <mxPoint x="255" y="-50" as="targetPoint" />
          </mxGeometry>
        </mxCell>
        <mxCell id="kTTq5hPvJIcZaEUFOn4r-73" value="" style="endArrow=none;html=1;rounded=0;entryX=0;entryY=1;entryDx=0;entryDy=0;" parent="1" target="kTTq5hPvJIcZaEUFOn4r-57" edge="1" source="kTTq5hPvJIcZaEUFOn4r-121">
          <mxGeometry width="50" height="50" relative="1" as="geometry">
            <mxPoint x="455" y="510" as="sourcePoint" />
            <mxPoint x="430" y="500" as="targetPoint" />
          </mxGeometry>
        </mxCell>
        <mxCell id="kTTq5hPvJIcZaEUFOn4r-74" value="" style="endArrow=none;html=1;rounded=0;entryX=0.5;entryY=1;entryDx=0;entryDy=0;" parent="1" target="kTTq5hPvJIcZaEUFOn4r-57" edge="1" source="kTTq5hPvJIcZaEUFOn4r-122">
          <mxGeometry width="50" height="50" relative="1" as="geometry">
            <mxPoint x="557.5" y="510" as="sourcePoint" />
            <mxPoint x="430" y="500" as="targetPoint" />
          </mxGeometry>
        </mxCell>
        <mxCell id="kTTq5hPvJIcZaEUFOn4r-75" value="turma" style="rounded=0;whiteSpace=wrap;html=1;" parent="1" vertex="1">
          <mxGeometry x="827" y="140" width="80" height="60" as="geometry" />
        </mxCell>
        <mxCell id="kTTq5hPvJIcZaEUFOn4r-90" value="" style="endArrow=none;html=1;rounded=0;exitX=1;exitY=0;exitDx=0;exitDy=0;" parent="1" source="kTTq5hPvJIcZaEUFOn4r-75" edge="1" target="kTTq5hPvJIcZaEUFOn4r-113">
          <mxGeometry width="50" height="50" relative="1" as="geometry">
            <mxPoint x="1000" y="260" as="sourcePoint" />
            <mxPoint x="980" y="70" as="targetPoint" />
          </mxGeometry>
        </mxCell>
        <mxCell id="kTTq5hPvJIcZaEUFOn4r-91" value="" style="endArrow=none;html=1;rounded=0;exitX=1;exitY=0.25;exitDx=0;exitDy=0;" parent="1" source="kTTq5hPvJIcZaEUFOn4r-75" edge="1" target="kTTq5hPvJIcZaEUFOn4r-114">
          <mxGeometry width="50" height="50" relative="1" as="geometry">
            <mxPoint x="1000" y="260" as="sourcePoint" />
            <mxPoint x="1060" y="85" as="targetPoint" />
          </mxGeometry>
        </mxCell>
        <mxCell id="kTTq5hPvJIcZaEUFOn4r-92" value="" style="endArrow=none;html=1;rounded=0;exitX=1;exitY=0.5;exitDx=0;exitDy=0;" parent="1" source="kTTq5hPvJIcZaEUFOn4r-75" edge="1" target="kTTq5hPvJIcZaEUFOn4r-115">
          <mxGeometry width="50" height="50" relative="1" as="geometry">
            <mxPoint x="1000" y="260" as="sourcePoint" />
            <mxPoint x="1060" y="165" as="targetPoint" />
          </mxGeometry>
        </mxCell>
        <mxCell id="kTTq5hPvJIcZaEUFOn4r-93" value="" style="endArrow=none;html=1;rounded=0;exitX=1;exitY=0.75;exitDx=0;exitDy=0;" parent="1" source="kTTq5hPvJIcZaEUFOn4r-75" edge="1" target="kTTq5hPvJIcZaEUFOn4r-116">
          <mxGeometry width="50" height="50" relative="1" as="geometry">
            <mxPoint x="1000" y="260" as="sourcePoint" />
            <mxPoint x="1060" y="240" as="targetPoint" />
          </mxGeometry>
        </mxCell>
        <mxCell id="kTTq5hPvJIcZaEUFOn4r-94" value="faz&amp;nbsp;" style="rhombus;whiteSpace=wrap;html=1;" parent="1" vertex="1">
          <mxGeometry x="830" y="230" width="80" height="40" as="geometry" />
        </mxCell>
        <mxCell id="kTTq5hPvJIcZaEUFOn4r-95" value="" style="endArrow=none;html=1;rounded=0;exitX=0.5;exitY=1;exitDx=0;exitDy=0;entryX=0.5;entryY=0;entryDx=0;entryDy=0;" parent="1" source="kTTq5hPvJIcZaEUFOn4r-75" target="kTTq5hPvJIcZaEUFOn4r-94" edge="1">
          <mxGeometry width="50" height="50" relative="1" as="geometry">
            <mxPoint x="690" y="360" as="sourcePoint" />
            <mxPoint x="740" y="310" as="targetPoint" />
          </mxGeometry>
        </mxCell>
        <mxCell id="kTTq5hPvJIcZaEUFOn4r-96" value="atividade" style="rounded=0;whiteSpace=wrap;html=1;" parent="1" vertex="1">
          <mxGeometry x="840" y="320" width="80" height="60" as="geometry" />
        </mxCell>
        <mxCell id="kTTq5hPvJIcZaEUFOn4r-97" value="" style="endArrow=none;html=1;rounded=0;exitX=0.5;exitY=1;exitDx=0;exitDy=0;entryX=0.413;entryY=0.083;entryDx=0;entryDy=0;entryPerimeter=0;" parent="1" source="kTTq5hPvJIcZaEUFOn4r-94" target="kTTq5hPvJIcZaEUFOn4r-96" edge="1">
          <mxGeometry width="50" height="50" relative="1" as="geometry">
            <mxPoint x="690" y="360" as="sourcePoint" />
            <mxPoint x="740" y="310" as="targetPoint" />
          </mxGeometry>
        </mxCell>
        <mxCell id="kTTq5hPvJIcZaEUFOn4r-101" value="" style="endArrow=none;html=1;rounded=0;exitX=0.5;exitY=0;exitDx=0;exitDy=0;entryX=0.25;entryY=1;entryDx=0;entryDy=0;" parent="1" target="kTTq5hPvJIcZaEUFOn4r-96" edge="1">
          <mxGeometry width="50" height="50" relative="1" as="geometry">
            <mxPoint x="815" y="520" as="sourcePoint" />
            <mxPoint x="740" y="310" as="targetPoint" />
          </mxGeometry>
        </mxCell>
        <mxCell id="kTTq5hPvJIcZaEUFOn4r-103" value="" style="endArrow=none;html=1;rounded=0;exitX=0.5;exitY=0;exitDx=0;exitDy=0;entryX=0.5;entryY=1;entryDx=0;entryDy=0;" parent="1" target="kTTq5hPvJIcZaEUFOn4r-96" edge="1">
          <mxGeometry width="50" height="50" relative="1" as="geometry">
            <mxPoint x="925" y="520" as="sourcePoint" />
            <mxPoint x="740" y="310" as="targetPoint" />
          </mxGeometry>
        </mxCell>
        <mxCell id="kTTq5hPvJIcZaEUFOn4r-104" value="" style="endArrow=none;html=1;rounded=0;exitX=0.371;exitY=0.02;exitDx=0;exitDy=0;exitPerimeter=0;entryX=0.75;entryY=1;entryDx=0;entryDy=0;" parent="1" target="kTTq5hPvJIcZaEUFOn4r-96" edge="1">
          <mxGeometry width="50" height="50" relative="1" as="geometry">
            <mxPoint x="1025.9699999999998" y="521" as="sourcePoint" />
            <mxPoint x="740" y="310" as="targetPoint" />
          </mxGeometry>
        </mxCell>
        <mxCell id="kTTq5hPvJIcZaEUFOn4r-106" value="N" style="endArrow=none;html=1;rounded=0;exitX=0.5;exitY=0;exitDx=0;exitDy=0;shape=link;" parent="1" source="1fyyE1d8kjyRgyEDbASr-4" edge="1" target="kTTq5hPvJIcZaEUFOn4r-55">
          <mxGeometry x="0.3939" y="-10" width="50" height="50" relative="1" as="geometry">
            <mxPoint x="690" y="370" as="sourcePoint" />
            <mxPoint x="600" y="340" as="targetPoint" />
            <mxPoint as="offset" />
          </mxGeometry>
        </mxCell>
        <mxCell id="kTTq5hPvJIcZaEUFOn4r-108" value="numero de funcionario" style="ellipse;whiteSpace=wrap;html=1;" parent="1" vertex="1">
          <mxGeometry x="670" y="-120" width="100" height="60" as="geometry" />
        </mxCell>
        <mxCell id="kTTq5hPvJIcZaEUFOn4r-110" value="contacto telefônico&amp;nbsp;" style="ellipse;whiteSpace=wrap;html=1;" parent="1" vertex="1">
          <mxGeometry x="540" y="-120" width="100" height="60" as="geometry" />
        </mxCell>
        <mxCell id="kTTq5hPvJIcZaEUFOn4r-111" value="email" style="ellipse;whiteSpace=wrap;html=1;" parent="1" vertex="1">
          <mxGeometry x="380" y="-110" width="100" height="60" as="geometry" />
        </mxCell>
        <mxCell id="kTTq5hPvJIcZaEUFOn4r-113" value="&lt;u&gt;&lt;b&gt;identificador&lt;/b&gt;&lt;/u&gt;" style="ellipse;whiteSpace=wrap;html=1;" parent="1" vertex="1">
          <mxGeometry x="920" y="45" width="77" height="40" as="geometry" />
        </mxCell>
        <mxCell id="kTTq5hPvJIcZaEUFOn4r-114" value="ano letivo&amp;nbsp;" style="ellipse;whiteSpace=wrap;html=1;" parent="1" vertex="1">
          <mxGeometry x="997" y="90" width="60" height="30" as="geometry" />
        </mxCell>
        <mxCell id="kTTq5hPvJIcZaEUFOn4r-115" value="designacao" style="ellipse;whiteSpace=wrap;html=1;" parent="1" vertex="1">
          <mxGeometry x="1060" y="150" width="70" height="40" as="geometry" />
        </mxCell>
        <mxCell id="kTTq5hPvJIcZaEUFOn4r-116" value="nº máximo de alunos&amp;nbsp;" style="ellipse;whiteSpace=wrap;html=1;" parent="1" vertex="1">
          <mxGeometry x="977" y="200" width="93" height="40" as="geometry" />
        </mxCell>
        <mxCell id="kTTq5hPvJIcZaEUFOn4r-118" value="&lt;u&gt;&lt;b&gt;identificador&amp;nbsp;&lt;/b&gt;&lt;/u&gt;" style="ellipse;whiteSpace=wrap;html=1;" parent="1" vertex="1">
          <mxGeometry x="760" y="520" width="100" height="60" as="geometry" />
        </mxCell>
        <mxCell id="kTTq5hPvJIcZaEUFOn4r-119" value="designacao" style="ellipse;whiteSpace=wrap;html=1;" parent="1" vertex="1">
          <mxGeometry x="870" y="520" width="100" height="60" as="geometry" />
        </mxCell>
        <mxCell id="kTTq5hPvJIcZaEUFOn4r-120" value="custo" style="ellipse;whiteSpace=wrap;html=1;" parent="1" vertex="1">
          <mxGeometry x="990" y="520" width="100" height="60" as="geometry" />
        </mxCell>
        <mxCell id="kTTq5hPvJIcZaEUFOn4r-121" value="email" style="ellipse;whiteSpace=wrap;html=1;" parent="1" vertex="1">
          <mxGeometry x="490" y="500" width="50" height="30" as="geometry" />
        </mxCell>
        <mxCell id="kTTq5hPvJIcZaEUFOn4r-122" value="contacto telefônico&amp;nbsp;" style="ellipse;whiteSpace=wrap;html=1;" parent="1" vertex="1">
          <mxGeometry x="561" y="510" width="70" height="50" as="geometry" />
        </mxCell>
        <mxCell id="kTTq5hPvJIcZaEUFOn4r-124" value="autorizacao" style="ellipse;whiteSpace=wrap;html=1;" parent="1" vertex="1">
          <mxGeometry x="210" y="-70" width="100" height="60" as="geometry" />
        </mxCell>
        <mxCell id="kTTq5hPvJIcZaEUFOn4r-125" value="&lt;b&gt;&lt;u&gt;cartão de cidadão&amp;nbsp;&lt;/u&gt;&lt;/b&gt;" style="ellipse;whiteSpace=wrap;html=1;" parent="1" vertex="1">
          <mxGeometry x="4" y="90" width="100" height="60" as="geometry" />
        </mxCell>
        <mxCell id="kTTq5hPvJIcZaEUFOn4r-126" value="nome&amp;nbsp;" style="ellipse;whiteSpace=wrap;html=1;" parent="1" vertex="1">
          <mxGeometry y="170" width="100" height="60" as="geometry" />
        </mxCell>
        <mxCell id="kTTq5hPvJIcZaEUFOn4r-128" value="data de nascimento&amp;nbsp;" style="ellipse;whiteSpace=wrap;html=1;" parent="1" vertex="1">
          <mxGeometry x="10" y="250" width="100" height="60" as="geometry" />
        </mxCell>
        <mxCell id="kTTq5hPvJIcZaEUFOn4r-130" value="morada&amp;nbsp;" style="ellipse;whiteSpace=wrap;html=1;" parent="1" vertex="1">
          <mxGeometry y="320" width="100" height="60" as="geometry" />
        </mxCell>
        <mxCell id="5sSVUtm3FbJFoOjmwIGV-3" value="" style="group" parent="1" vertex="1" connectable="0">
          <mxGeometry x="360" y="205" width="70" height="70" as="geometry" />
        </mxCell>
        <mxCell id="5sSVUtm3FbJFoOjmwIGV-1" value="" style="triangle;whiteSpace=wrap;html=1;rotation=-180;" parent="5sSVUtm3FbJFoOjmwIGV-3" vertex="1">
          <mxGeometry width="60" height="70" as="geometry" />
        </mxCell>
        <mxCell id="5sSVUtm3FbJFoOjmwIGV-2" value="É" style="text;html=1;align=center;verticalAlign=middle;whiteSpace=wrap;rounded=0;" parent="5sSVUtm3FbJFoOjmwIGV-3" vertex="1">
          <mxGeometry x="10" y="20" width="60" height="30" as="geometry" />
        </mxCell>
        <mxCell id="5sSVUtm3FbJFoOjmwIGV-4" value="" style="endArrow=none;html=1;rounded=0;" parent="1" source="kTTq5hPvJIcZaEUFOn4r-1" target="5sSVUtm3FbJFoOjmwIGV-1" edge="1">
          <mxGeometry width="50" height="50" relative="1" as="geometry">
            <mxPoint x="450" y="270" as="sourcePoint" />
            <mxPoint x="500" y="220" as="targetPoint" />
          </mxGeometry>
        </mxCell>
        <mxCell id="5sSVUtm3FbJFoOjmwIGV-5" value="1" style="endArrow=none;html=1;rounded=0;" parent="1" source="5sSVUtm3FbJFoOjmwIGV-7" target="kTTq5hPvJIcZaEUFOn4r-75" edge="1">
          <mxGeometry x="0.7604" y="-10" width="50" height="50" relative="1" as="geometry">
            <mxPoint x="770" y="210" as="sourcePoint" />
            <mxPoint x="820" y="160" as="targetPoint" />
            <mxPoint x="-1" as="offset" />
          </mxGeometry>
        </mxCell>
        <mxCell id="5sSVUtm3FbJFoOjmwIGV-6" value="N" style="endArrow=none;html=1;rounded=0;shape=link;" parent="1" source="5sSVUtm3FbJFoOjmwIGV-8" target="kTTq5hPvJIcZaEUFOn4r-75" edge="1">
          <mxGeometry x="0.7806" y="8" width="50" height="50" relative="1" as="geometry">
            <mxPoint x="770" y="210" as="sourcePoint" />
            <mxPoint x="820" y="160" as="targetPoint" />
            <mxPoint as="offset" />
          </mxGeometry>
        </mxCell>
        <mxCell id="5sSVUtm3FbJFoOjmwIGV-9" value="" style="endArrow=none;html=1;rounded=0;shape=link;" parent="1" source="kTTq5hPvJIcZaEUFOn4r-4" target="5sSVUtm3FbJFoOjmwIGV-8" edge="1">
          <mxGeometry width="50" height="50" relative="1" as="geometry">
            <mxPoint x="640" y="110" as="sourcePoint" />
            <mxPoint x="827" y="160" as="targetPoint" />
          </mxGeometry>
        </mxCell>
        <mxCell id="5sSVUtm3FbJFoOjmwIGV-8" value="tem" style="rhombus;whiteSpace=wrap;html=1;" parent="1" vertex="1">
          <mxGeometry x="715" y="120" width="35" height="30" as="geometry" />
        </mxCell>
        <mxCell id="5sSVUtm3FbJFoOjmwIGV-7" value="pertence" style="rhombus;whiteSpace=wrap;html=1;" parent="1" vertex="1">
          <mxGeometry x="695" y="180" width="65" height="40" as="geometry" />
        </mxCell>
        <mxCell id="royhO-6ypEUz-X95GzIL-2" value="N" style="endArrow=none;html=1;rounded=0;entryX=0.108;entryY=0.675;entryDx=0;entryDy=0;entryPerimeter=0;" parent="1" source="kTTq5hPvJIcZaEUFOn4r-55" target="5sSVUtm3FbJFoOjmwIGV-7" edge="1">
          <mxGeometry x="-0.5964" y="11" width="50" height="50" relative="1" as="geometry">
            <mxPoint x="640" y="221" as="sourcePoint" />
            <mxPoint x="630" y="222.5" as="targetPoint" />
            <mxPoint as="offset" />
          </mxGeometry>
        </mxCell>
        <mxCell id="royhO-6ypEUz-X95GzIL-3" value="N" style="text;html=1;align=center;verticalAlign=middle;resizable=0;points=[];autosize=1;strokeColor=none;fillColor=none;" parent="1" vertex="1">
          <mxGeometry x="865" y="200" width="30" height="30" as="geometry" />
        </mxCell>
        <mxCell id="royhO-6ypEUz-X95GzIL-4" value="1" style="text;html=1;align=center;verticalAlign=middle;resizable=0;points=[];autosize=1;strokeColor=none;fillColor=none;" parent="1" vertex="1">
          <mxGeometry x="630" y="85" width="30" height="30" as="geometry" />
        </mxCell>
        <mxCell id="royhO-6ypEUz-X95GzIL-7" value="M" style="text;html=1;align=center;verticalAlign=middle;resizable=0;points=[];autosize=1;strokeColor=none;fillColor=none;" parent="1" vertex="1">
          <mxGeometry x="877" y="298" width="30" height="30" as="geometry" />
        </mxCell>
        <mxCell id="1fyyE1d8kjyRgyEDbASr-1" value="professor" style="ellipse;whiteSpace=wrap;html=1;" vertex="1" parent="1">
          <mxGeometry x="832" y="30" width="63" height="40" as="geometry" />
        </mxCell>
        <mxCell id="1fyyE1d8kjyRgyEDbASr-3" value="" style="endArrow=none;html=1;rounded=0;fontSize=12;startSize=8;endSize=8;curved=1;" edge="1" parent="1" source="kTTq5hPvJIcZaEUFOn4r-75" target="1fyyE1d8kjyRgyEDbASr-1">
          <mxGeometry width="50" height="50" relative="1" as="geometry">
            <mxPoint x="860" y="310" as="sourcePoint" />
            <mxPoint x="910" y="260" as="targetPoint" />
          </mxGeometry>
        </mxCell>
        <mxCell id="1fyyE1d8kjyRgyEDbASr-6" value="1" style="endArrow=none;html=1;rounded=0;exitX=0.5;exitY=0;exitDx=0;exitDy=0;shape=link;" edge="1" parent="1" source="kTTq5hPvJIcZaEUFOn4r-57" target="1fyyE1d8kjyRgyEDbASr-4">
          <mxGeometry x="-0.5238" y="-10" width="50" height="50" relative="1" as="geometry">
            <mxPoint x="600" y="370" as="sourcePoint" />
            <mxPoint x="600" y="260" as="targetPoint" />
            <mxPoint as="offset" />
          </mxGeometry>
        </mxCell>
        <mxCell id="1fyyE1d8kjyRgyEDbASr-4" value="tem" style="rhombus;whiteSpace=wrap;html=1;" vertex="1" parent="1">
          <mxGeometry x="575" y="293" width="50" height="35" as="geometry" />
        </mxCell>
        <mxCell id="1fyyE1d8kjyRgyEDbASr-8" value="tipo de relação" style="ellipse;whiteSpace=wrap;html=1;" vertex="1" parent="1">
          <mxGeometry x="490" y="290.5" width="70" height="40" as="geometry" />
        </mxCell>
        <mxCell id="1fyyE1d8kjyRgyEDbASr-10" value="" style="endArrow=none;html=1;rounded=0;fontSize=12;startSize=8;endSize=8;curved=1;" edge="1" parent="1" source="1fyyE1d8kjyRgyEDbASr-8" target="1fyyE1d8kjyRgyEDbASr-4">
          <mxGeometry width="50" height="50" relative="1" as="geometry">
            <mxPoint x="520" y="270" as="sourcePoint" />
            <mxPoint x="570" y="220" as="targetPoint" />
          </mxGeometry>
        </mxCell>
        <mxCell id="1fyyE1d8kjyRgyEDbASr-12" value="N" style="endArrow=none;html=1;rounded=0;exitX=0.5;exitY=0;exitDx=0;exitDy=0;entryX=0.5;entryY=1;entryDx=0;entryDy=0;" edge="1" parent="1" source="kTTq5hPvJIcZaEUFOn4r-1" target="1fyyE1d8kjyRgyEDbASr-11">
          <mxGeometry x="-0.4286" y="-10" width="50" height="50" relative="1" as="geometry">
            <mxPoint x="260" y="210" as="sourcePoint" />
            <mxPoint x="260" y="90" as="targetPoint" />
            <mxPoint as="offset" />
          </mxGeometry>
        </mxCell>
        <mxCell id="1fyyE1d8kjyRgyEDbASr-11" value="tem" style="rhombus;whiteSpace=wrap;html=1;" vertex="1" parent="1">
          <mxGeometry x="235" y="130" width="50" height="45" as="geometry" />
        </mxCell>
        <mxCell id="1fyyE1d8kjyRgyEDbASr-14" value="1" style="endArrow=none;html=1;rounded=0;exitX=1;exitY=0.5;exitDx=0;exitDy=0;entryX=0;entryY=0.5;entryDx=0;entryDy=0;" edge="1" parent="1" source="kTTq5hPvJIcZaEUFOn4r-62" target="1fyyE1d8kjyRgyEDbASr-13">
          <mxGeometry x="-0.8" y="11" width="50" height="50" relative="1" as="geometry">
            <mxPoint x="315" y="60" as="sourcePoint" />
            <mxPoint x="560" y="230" as="targetPoint" />
            <mxPoint as="offset" />
          </mxGeometry>
        </mxCell>
        <mxCell id="1fyyE1d8kjyRgyEDbASr-13" value="tem" style="rhombus;whiteSpace=wrap;html=1;" vertex="1" parent="1">
          <mxGeometry x="389" y="112.5" width="56" height="45" as="geometry" />
        </mxCell>
        <mxCell id="1fyyE1d8kjyRgyEDbASr-20" value="M" style="endArrow=none;html=1;rounded=0;fontSize=12;startSize=8;endSize=8;curved=1;" edge="1" parent="1" source="1fyyE1d8kjyRgyEDbASr-19" target="kTTq5hPvJIcZaEUFOn4r-55">
          <mxGeometry x="0.6842" y="5" width="50" height="50" relative="1" as="geometry">
            <mxPoint x="610" y="230" as="sourcePoint" />
            <mxPoint x="660" y="180" as="targetPoint" />
            <mxPoint as="offset" />
          </mxGeometry>
        </mxCell>
        <mxCell id="1fyyE1d8kjyRgyEDbASr-21" value="N" style="endArrow=none;html=1;rounded=0;fontSize=12;curved=1;shape=link;" edge="1" parent="1" source="kTTq5hPvJIcZaEUFOn4r-96" target="1fyyE1d8kjyRgyEDbASr-19">
          <mxGeometry x="-0.8158" y="8" width="50" height="50" relative="1" as="geometry">
            <mxPoint x="840" y="333" as="sourcePoint" />
            <mxPoint x="640" y="247" as="targetPoint" />
            <mxPoint as="offset" />
          </mxGeometry>
        </mxCell>
        <mxCell id="1fyyE1d8kjyRgyEDbASr-19" value="frequenta" style="rhombus;whiteSpace=wrap;html=1;" vertex="1" parent="1">
          <mxGeometry x="700" y="275" width="76" height="45" as="geometry" />
        </mxCell>
      </root>
    </mxGraphModel>
  </diagram>
</mxfile>
